<?xml version="1.0" encoding="UTF-8" standalone="no"?>
<svg
   xmlns:dc="http://purl.org/dc/elements/1.1/"
   xmlns:cc="http://creativecommons.org/ns#"
   xmlns:rdf="http://www.w3.org/1999/02/22-rdf-syntax-ns#"
   xmlns:svg="http://www.w3.org/2000/svg"
   xmlns="http://www.w3.org/2000/svg"
   xmlns:sodipodi="http://sodipodi.sourceforge.net/DTD/sodipodi-0.dtd"
   xmlns:inkscape="http://www.inkscape.org/namespaces/inkscape"
   width="210mm"
   height="297mm"
   viewBox="0 0 210 297"
   version="1.1"
   id="svg3292"
   inkscape:version="1.0 (4035a4fb49, 2020-05-01)"
   sodipodi:docname="mouse.svg">
  <defs
     id="defs3286" />
  <sodipodi:namedview
     id="base"
     pagecolor="#ffffff"
     bordercolor="#666666"
     borderopacity="1.0"
     inkscape:pageopacity="0.0"
     inkscape:pageshadow="2"
     inkscape:zoom="0.98994948"
     inkscape:cx="405.55325"
     inkscape:cy="396.33088"
     inkscape:document-units="mm"
     inkscape:current-layer="layer1"
     inkscape:document-rotation="0"
     showgrid="false"
     inkscape:window-width="1465"
     inkscape:window-height="1040"
     inkscape:window-x="2128"
     inkscape:window-y="0"
     inkscape:window-maximized="0" />
  <metadata
     id="metadata3289">
    <rdf:RDF>
      <cc:Work
         rdf:about="">
        <dc:format>image/svg+xml</dc:format>
        <dc:type
           rdf:resource="http://purl.org/dc/dcmitype/StillImage" />
        <dc:title />
      </cc:Work>
    </rdf:RDF>
  </metadata>
  <g
     inkscape:label="Mouse"
     inkscape:groupmode="layer"
     id="layer1">
    <path
       style="fill:none;stroke:#000000;stroke-width:5.902;stroke-linecap:butt;stroke-linejoin:miter;stroke-miterlimit:4;stroke-dasharray:none;stroke-opacity:1"
       d="m 89.202381,66.546734 h 6.61458 c 17.324629,0 23.968549,10.95638 22.489579,42.144346 -1.35662,28.6078 -1.50196,63.5 -29.104159,63.5"
       id="path3855"
       sodipodi:nodetypes="ccsc" />
    <path
       style="fill:none;stroke:#000000;stroke-width:5.902;stroke-linecap:butt;stroke-linejoin:miter;stroke-miterlimit:4;stroke-dasharray:none;stroke-opacity:1"
       d="m 93.855494,94.947497 c 7.934856,1.173482 16.358536,9.190443 24.538676,13.797793"
       id="path3879"
       sodipodi:nodetypes="cc" />
    <g
       id="g3973"
       transform="matrix(1.294458,0,0,1.294458,-26.070721,-31.703365)">
      <path
         sodipodi:nodetypes="csc"
         id="path3883"
         d="m 89.013391,87.31691 c 1.427652,0 3.496281,1.677273 3.496281,6.803568 v 8.744062"
         style="fill:none;stroke:#000000;stroke-width:2.30188;stroke-linecap:square;stroke-linejoin:miter;stroke-miterlimit:4;stroke-dasharray:none;stroke-opacity:1" />
      <path
         style="fill:none;stroke:#000000;stroke-width:2.30188;stroke-linecap:butt;stroke-linejoin:miter;stroke-miterlimit:4;stroke-dasharray:none;stroke-opacity:1"
         d="m 89.01339,111.32952 c 1.427652,0 3.496282,-1.67727 3.496282,-6.80357 v -1.66141"
         id="path3883-1"
         sodipodi:nodetypes="csc" />
      <path
         style="fill:none;stroke:#000000;stroke-width:2.30188;stroke-linecap:square;stroke-linejoin:miter;stroke-miterlimit:4;stroke-dasharray:none;stroke-opacity:1"
         d="m 89.013391,87.31691 c -1.427652,0 -3.496281,1.677273 -3.496281,6.803568 v 8.744062"
         id="path3883-7"
         sodipodi:nodetypes="csc" />
      <path
         sodipodi:nodetypes="csc"
         id="path3883-1-8"
         d="m 89.013392,111.32952 c -1.427652,0 -3.496282,-1.67727 -3.496282,-6.80357 v -1.66141"
         style="fill:none;stroke:#000000;stroke-width:2.30188;stroke-linecap:butt;stroke-linejoin:miter;stroke-miterlimit:4;stroke-dasharray:none;stroke-opacity:1" />
    </g>
    <path
       style="fill:none;stroke:#000000;stroke-width:5.902;stroke-linecap:butt;stroke-linejoin:miter;stroke-miterlimit:4;stroke-dasharray:none;stroke-opacity:1"
       d="m 89.153375,81.324708 0.04901,-14.777974"
       id="path3939"
       sodipodi:nodetypes="cc" />
    <path
       sodipodi:nodetypes="ccsc"
       id="path3855-5"
       d="m 89.202381,66.546734 h -6.61458 c -17.324629,0 -23.968549,10.95638 -22.489579,42.144346 1.35662,28.6078 1.50196,63.50001 29.104159,63.50001"
       style="fill:none;stroke:#000000;stroke-width:5.902;stroke-linecap:butt;stroke-linejoin:miter;stroke-miterlimit:4;stroke-dasharray:none;stroke-opacity:1" />
    <path
       sodipodi:nodetypes="cc"
       id="path3879-0"
       d="m 84.888103,94.325179 c -9.230283,2.6967 -16.592115,9.597411 -24.877511,14.420111"
       style="fill:none;stroke:#000000;stroke-width:5.902;stroke-linecap:butt;stroke-linejoin:miter;stroke-miterlimit:4;stroke-dasharray:none;stroke-opacity:1" />
  </g>
  <g
     inkscape:groupmode="layer"
     id="layer2"
     inkscape:label="Left"
     style="display:inline">
    <path
       style="fill:#000000;fill-opacity:1;stroke:#000000;stroke-width:0.264583px;stroke-linecap:butt;stroke-linejoin:miter;stroke-opacity:1"
       d="m 89.202381,66.546734 -0.04901,14.777974 -3.815753,3.278736 -0.921989,10.477687 -24.405041,13.664159 c 0,0 -1.32979,-17.464041 0.843574,-22.566719 2.173364,-5.10268 3.496281,-13.134673 8.882441,-16.725447 5.38616,-3.590774 19.465774,-2.90639 19.465774,-2.90639 z"
       id="path3965"
       sodipodi:nodetypes="cccccssc" />
  </g>
  <g
     inkscape:groupmode="layer"
     id="layer3"
     inkscape:label="Right"
     style="display:none">
    <path
       style="fill:#000000;fill-opacity:1;stroke:#000000;stroke-width:0.264583;stroke-linecap:butt;stroke-linejoin:miter;stroke-miterlimit:4;stroke-dasharray:none;stroke-opacity:1"
       d="m 89.202381,66.546734 -0.04901,14.777974 c 0,0 4.083349,1.467192 3.766674,13.355519 -0.02235,0.839024 25.474125,14.065063 25.474125,14.065063 0,0 1.42428,-18.219993 -1.78852,-27.480409 -3.21279,-9.260417 -8.50446,-13.04018 -12.09523,-14.174108 -3.59078,-1.13393 -15.308043,-0.544039 -15.308043,-0.544039"
       id="path3962"
       sodipodi:nodetypes="ccscssc" />
  </g>
  <g
     inkscape:groupmode="layer"
     id="layer4"
     inkscape:label="Scroll"
     style="display:none">
    <path
       style="fill:#000000;fill-opacity:1;stroke:#000000;stroke-width:0.264583px;stroke-linecap:butt;stroke-linejoin:miter;stroke-opacity:1"
       d="m 89.153375,81.324708 3.809772,2.845406 1.45655,7.521537 -0.880088,15.471309 -4.386233,5.24506 v 0 l -4.366507,-4.28112 0.557467,-23.77173 z"
       id="path3967"
       sodipodi:nodetypes="ccccccccc" />
  </g>
</svg>
